<svg t="1718261264445" class="icon" viewBox="0 0 1024 1024" version="1.1" xmlns="http://www.w3.org/2000/svg" p-id="6177" width="200" height="200"><path d="M511.122286 1019.904V730.136381c0-1.194667 0.24381-2.340571 0.365714-3.510857 1.340952-2.681905 4.169143-3.413333 6.485333-4.754286 55.588571-31.646476 111.055238-63.536762 166.765715-95.061333 5.461333-3.072 10.605714-6.826667 16.579047-9.020953 5.485714 1.26781 9.752381 4.827429 14.384762 7.631238 35.230476 21.382095 70.607238 42.520381 105.862095 63.878096 39.740952 24.137143 79.725714 47.88419 119.417905 72.167619 1.584762 0.975238 3.413333 1.682286 4.071619 3.657143-15.335619 9.142857-30.598095 18.383238-46.006857 27.428571-127.609905 74.800762-255.268571 149.577143-382.878476 224.402286-1.414095 0.828952-3.169524 1.29219-4.022857 2.925714l-1.024 0.024381z" fill="#3497DA" p-id="6178"></path><path d="M79.043048 256.024381c47.177143-27.89181 94.354286-55.832381 141.58019-83.651048C315.977143 116.150857 411.306667 59.977143 506.563048 3.754667c1.26781-0.731429 2.950095-1.072762 3.510857-2.730667h1.048381v288.01219c0 1.706667-0.097524 3.364571-0.146286 5.071239-0.731429 1.706667-2.340571 2.364952-3.803429 3.218285-44.836571 25.770667-89.795048 51.248762-134.680381 76.921905-14.06781 8.045714-28.257524 15.896381-42.203428 24.137143-2.657524 1.584762-5.290667 3.169524-8.289524 3.974095-2.998857 0.487619-5.241905-1.145905-7.582476-2.56-65.511619-39.302095-131.072-78.506667-196.681143-117.613714-11.873524-7.070476-23.82019-14.06781-35.547429-21.406476-1.657905-1.048381-4.486095-1.633524-3.169523-4.754286z" fill="#1BBB9A" p-id="6179"></path><path d="M945.054476 765.147429c-21.894095-13.116952-43.812571-26.209524-65.682286-39.375239L762.148571 655.11619l-60.757333-36.693333c-2.145524-2.486857-1.365333-5.510095-1.365333-8.289524-0.048762-65.048381-0.146286-130.072381 0.121905-195.096381 0-6.729143-2.364952-10.386286-8.094477-13.653333-50.663619-28.891429-101.010286-58.294857-151.503238-87.454476-7.704381-4.437333-15.433143-8.825905-23.113143-13.360762-1.877333-1.097143-3.998476-1.999238-5.022476-4.144762-0.926476-2.925714 1.877333-2.876952 3.193905-3.632762 33.499429-18.846476 67.047619-37.61981 100.571429-56.393143 49.054476-27.452952 98.084571-54.881524 147.065904-82.432 2.901333-1.609143 4.900571-1.755429 7.801905 0.048762 57.782857 35.498667 115.614476 70.92419 173.470476 106.252191 2.852571 1.731048 3.900952 3.535238 3.900953 6.826666-0.560762 78.457905-0.975238 156.867048-1.462858 235.276191-0.316952 54.686476-0.633905 109.348571-1.024 163.986286-0.24381 32.914286-0.585143 65.828571-0.902095 98.742857z" fill="#19B4FD" p-id="6180"></path><path d="M321.80419 401.456762c-1.365333 1.828571-0.902095 3.900952-0.902095 5.90019 0.024381 68.388571 0.146286 136.777143 0.073143 205.165715 0 3.900952 1.219048 6.022095 4.632381 7.996952 60.367238 34.791619 120.685714 69.729524 180.97981 104.594286 1.024 0.585143 2.145524 0.975238 3.242666 1.462857 0.78019 2.852571-1.950476 2.852571-3.315809 3.608381-49.590857 27.867429-99.254857 55.661714-148.894476 83.456-32.963048 18.456381-65.926095 36.839619-98.79162 55.442286-3.023238 1.706667-4.998095 1.462857-7.801904-0.24381-57.636571-35.401143-115.321905-70.729143-173.104762-105.959619-3.218286-1.950476-4.144762-4.144762-4.144762-7.753143 0.560762-79.969524 0.975238-159.939048 1.462857-239.88419 0.292571-53.296762 0.609524-106.593524 0.975238-159.890286 0.195048-31.402667 0.487619-62.805333 0.731429-94.208 0.024381-1.950476-0.658286-4.242286 2.096762-5.12 0.75581 3.657143 4.437333 4.071619 6.875428 5.510095 57.124571 34.255238 114.346667 68.33981 171.544381 102.497524 19.748571 11.800381 39.399619 23.771429 59.099429 35.669333 1.633524 0.975238 3.267048 1.877333 5.241904 1.755429z" fill="#36D6B6" p-id="6181"></path></svg>