<svg t="1718175267563" class="icon" viewBox="0 0 1024 1024" version="1.1" xmlns="http://www.w3.org/2000/svg" p-id="4412" id="mx_n_1718175267565" width="200" height="200"><path d="M368.00306 384.0136c-61.742688 0-111.99762-50.254932-111.99762-111.99762s50.254932-111.99762 111.99762-111.99762 111.99762 50.254932 111.99762 111.99762-50.254932 111.99762-111.99762 111.99762z m0-191.99592c-44.111063 0-79.9983 35.887237-79.9983 79.9983s35.887237 79.9983 79.9983 79.9983 79.9983-35.887237 79.9983-79.9983-35.887237-79.9983-79.9983-79.9983z" p-id="4413" fill="#eccc68"></path><path d="M368.00306 320.01496c-26.463438 0-47.99898-21.535542-47.99898-47.99898s21.535542-47.99898 47.99898-47.99898 47.99898 21.535542 47.99898 47.99898-21.535542 47.99898-47.99898 47.99898z m0-63.99864a15.99966 15.99966 0 1 0 0 31.99932 15.99966 15.99966 0 0 0 0-31.99932z" p-id="4414" fill="#eccc68"></path><path d="M307.668342 362.670053a15.967661 15.967661 0 0 1-15.07168-21.327547A80.062299 80.062299 0 0 1 368.01906 288.01564a80.126297 80.126297 0 0 1 75.390398 53.198869 15.99966 15.99966 0 1 1-30.14336 10.719772A48.110978 48.110978 0 0 0 368.01906 320.01496c-20.319568 0-38.511182 12.863727-45.279038 31.98332a15.98366 15.98366 0 0 1-15.07168 10.671773z" p-id="4415" fill="#eccc68"></path><path d="M879.99218 1024H144.00782a15.99966 15.99966 0 0 1-15.99966-15.99966V16.02142a15.99966 15.99966 0 0 1 15.99966-15.99966h735.98436a15.99966 15.99966 0 0 1 15.99966 15.99966v991.97892a15.99966 15.99966 0 0 1-15.99966 15.99966z m-719.9847-31.99932h703.98504V32.02108H160.00748v959.9796z" p-id="4416" fill="#eccc68" data-spm-anchor-id="a313x.search_index.0.i2.23853a81COw7ny" class=""></path><path d="M751.9949 976.00102H192.0068a15.99966 15.99966 0 0 1-15.99966-15.99966V64.0204a15.99966 15.99966 0 1 1 31.99932 0v879.9813h537.364581L815.99354 873.379201V64.0204a15.99966 15.99966 0 1 1 31.99932 0v815.98266c0 4.25591-1.679964 8.319823-4.6879 11.31176l-79.9983 79.9983A15.935661 15.935661 0 0 1 751.9949 976.00102z" p-id="4417" fill="#eccc68"></path><path d="M400.01838 96.01972a15.99966 15.99966 0 0 1-14.335696-8.847812l-31.99932-63.99864a15.99966 15.99966 0 0 1 28.623392-14.319696l31.99932 63.99864A15.99966 15.99966 0 0 1 400.01838 96.01972zM623.98162 96.01972a15.99966 15.99966 0 0 1-14.287696-23.151508l31.99932-63.99864a15.99966 15.99966 0 0 1 28.623392 14.319695l-31.99932 63.99864c-2.81594 5.599881-8.46382 8.831812-14.335696 8.831813z" p-id="4418" fill="#eccc68"></path><path d="M623.99762 96.01972H400.00238a15.99966 15.99966 0 1 1 0-31.99932h223.99524a15.99966 15.99966 0 1 1 0 31.99932z" p-id="4419" fill="#eccc68"></path><path d="M831.9932 80.02006H631.99745a15.99966 15.99966 0 1 1 0-31.99932H831.9932a15.99966 15.99966 0 1 1 0 31.99932zM392.00255 80.02006H192.0068a15.99966 15.99966 0 1 1 0-31.99932h199.99575a15.99966 15.99966 0 1 1 0 31.99932zM751.9949 976.00102a15.99966 15.99966 0 0 1-15.99966-15.99966v-79.9983a15.99966 15.99966 0 1 1 31.99932 0v79.9983a15.99966 15.99966 0 0 1-15.99966 15.99966z" p-id="4420" fill="#eccc68"></path><path d="M831.9932 896.00272h-79.9983a15.99966 15.99966 0 1 1 0-31.99932h79.9983a15.99966 15.99966 0 1 1 0 31.99932zM751.9949 224.017H543.99932a15.99966 15.99966 0 1 1 0-31.99932h207.99558a15.99966 15.99966 0 1 1 0 31.99932zM751.9949 288.01564H543.99932a15.99966 15.99966 0 1 1 0-31.99932h207.99558a15.99966 15.99966 0 1 1 0 31.99932zM655.99694 352.01428h-111.99762a15.99966 15.99966 0 1 1 0-31.99932h111.99762a15.99966 15.99966 0 1 1 0 31.99932zM751.9949 528.01054H272.0051a15.99966 15.99966 0 0 1-15.99966-15.99966v-47.99898a15.99966 15.99966 0 0 1 15.99966-15.99966h479.9898a15.99966 15.99966 0 0 1 15.99966 15.99966v47.99898a15.99966 15.99966 0 0 1-15.99966 15.99966z m-463.99014-31.99932h447.99048v-15.99966H288.00476v15.99966z" p-id="4421" fill="#eccc68"></path><path d="M480.00068 528.01054a15.98366 15.98366 0 0 1-11.31176-27.31142l47.99898-47.99898a15.98366 15.98366 0 1 1 22.62352 22.623519l-47.99898 47.99898A15.951661 15.951661 0 0 1 480.00068 528.01054zM751.9949 624.0085H272.0051a15.99966 15.99966 0 0 1-15.99966-15.99966v-47.99898a15.99966 15.99966 0 0 1 15.99966-15.99966h479.9898a15.99966 15.99966 0 0 1 15.99966 15.99966v47.99898a15.99966 15.99966 0 0 1-15.99966 15.99966z m-463.99014-31.99932h447.99048v-15.99966H288.00476v15.99966z" p-id="4422" fill="#eccc68"></path><path d="M575.99864 624.0085a15.98366 15.98366 0 0 1-11.31176-27.31142l47.99898-47.99898a15.98366 15.98366 0 1 1 22.62352 22.623519l-47.99898 47.99898A15.951661 15.951661 0 0 1 575.99864 624.0085zM751.9949 720.00646H272.0051a15.99966 15.99966 0 0 1-15.99966-15.99966v-47.99898a15.99966 15.99966 0 0 1 15.99966-15.99966h479.9898a15.99966 15.99966 0 0 1 15.99966 15.99966v47.99898a15.99966 15.99966 0 0 1-15.99966 15.99966z m-463.99014-31.99932h447.99048v-15.99966H288.00476v15.99966z" p-id="4423" fill="#eccc68"></path><path d="M400.00238 720.00646a15.98366 15.98366 0 0 1-11.31176-27.31142l47.99898-47.99898a15.98366 15.98366 0 1 1 22.62352 22.623519l-47.99898 47.99898A15.951661 15.951661 0 0 1 400.00238 720.00646zM320.00408 832.00408h-47.99898a15.99966 15.99966 0 1 1 0-31.99932h47.99898a15.99966 15.99966 0 1 1 0 31.99932zM671.9966 832.00408H384.00272a15.99966 15.99966 0 1 1 0-31.99932h287.99388a15.99966 15.99966 0 1 1 0 31.99932zM320.00408 896.00272h-47.99898a15.99966 15.99966 0 1 1 0-31.99932h47.99898a15.99966 15.99966 0 1 1 0 31.99932zM671.9966 896.00272H384.00272a15.99966 15.99966 0 1 1 0-31.99932h287.99388a15.99966 15.99966 0 1 1 0 31.99932z" p-id="4424" fill="#eccc68"></path></svg>